<svg width="1440" height="900" viewBox="0 0 1440 900" fill="none" xmlns="http://www.w3.org/2000/svg">
  <rect width="1440" height="900" fill="#F5F7F9"/>
  <rect x="0.5" y="0.5" width="359" height="899" fill="#FFFFFF" stroke="#D8DEE8"/>
  <rect x="0.5" y="0.5" width="1439" height="88" fill="#FFFFFF" stroke="#D8DEE8"/>
  <text x="28" y="38" fill="#17202A" font-family="Arial, sans-serif" font-size="28" font-weight="700">S3 File Manager</text>
  <rect x="162" y="18" width="38" height="38" rx="7" fill="#126A5A"/>
  <text x="174" y="45" fill="#FFFFFF" font-family="Arial, sans-serif" font-size="25">□</text>
  <rect x="210" y="18" width="38" height="38" rx="7" fill="#126A5A"/>
  <text x="223" y="46" fill="#FFFFFF" font-family="Arial, sans-serif" font-size="26">＋</text>
  <rect x="258" y="18" width="38" height="38" rx="7" fill="#126A5A"/>
  <text x="271" y="46" fill="#FFFFFF" font-family="Arial, sans-serif" font-size="24">↑</text>
  <rect x="306" y="18" width="38" height="38" rx="7" fill="#126A5A"/>
  <text x="318" y="46" fill="#FFFFFF" font-family="Arial, sans-serif" font-size="24">↻</text>
  <text x="28" y="72" fill="#667085" font-family="Arial, sans-serif" font-size="14">example-assets-bucket · AWS S3 · ap-northeast-1</text>

  <rect x="0.5" y="88.5" width="359" height="42" fill="#FFFFFF" stroke="#D8DEE8"/>
  <text x="28" y="115" fill="#667085" font-family="Arial, sans-serif" font-size="13" font-weight="700">接続設定</text>
  <text x="94" y="115" fill="#667085" font-family="Arial, sans-serif" font-size="12">表示</text>
  <text x="28" y="160" fill="#667085" font-family="Arial, sans-serif" font-size="13" font-weight="700">BUCKET</text>
  <rect x="28.5" y="174.5" width="303" height="38" rx="7" fill="#FFFFFF" stroke="#D8DEE8"/>
  <text x="42" y="199" fill="#17202A" font-family="Arial, sans-serif" font-size="15">example-assets-bucket</text>

  <text x="28" y="240" fill="#667085" font-family="Arial, sans-serif" font-size="13" font-weight="700">REGION</text>
  <text x="91" y="240" fill="#667085" font-family="Arial, sans-serif" font-size="12">表示</text>
  <text x="28" y="261" fill="#667085" font-family="Arial, sans-serif" font-size="12">Bucket region: ap-northeast-1</text>

  <text x="28" y="293" fill="#667085" font-family="Arial, sans-serif" font-size="13" font-weight="700">PREFIX</text>
  <rect x="28.5" y="307.5" width="222" height="38" rx="7" fill="#FFFFFF" stroke="#D8DEE8"/>
  <text x="42" y="332" fill="#17202A" font-family="Arial, sans-serif" font-size="15">logs/2026/</text>
  <rect x="258" y="307" width="74" height="39" rx="7" fill="#126A5A"/>
  <text x="282" y="332" fill="#FFFFFF" font-family="Arial, sans-serif" font-size="15" font-weight="700">検索</text>

  <rect x="0.5" y="362.5" width="359" height="44" fill="#FFFFFF" stroke="#D8DEE8"/>
  <text x="28" y="390" fill="#667085" font-family="Arial, sans-serif" font-size="13" font-weight="700">OBJECTS</text>
  <rect x="210.5" y="374.5" width="84" height="24" rx="6" fill="#FFFFFF" stroke="#D8DEE8"/>
  <rect x="210.5" y="374.5" width="42" height="24" rx="6" fill="#E8F2EF" stroke="#D8DEE8"/>
  <text x="231" y="391" text-anchor="middle" fill="#126A5A" font-family="Arial, sans-serif" font-size="11" font-weight="700">名前順</text>
  <text x="273" y="391" text-anchor="middle" fill="#667085" font-family="Arial, sans-serif" font-size="11" font-weight="700">更新順</text>
  <text x="316" y="390" text-anchor="end" fill="#667085" font-family="Arial, sans-serif" font-size="13" font-weight="700">2/4</text>
  <rect x="20.5" y="417.5" width="319" height="38" rx="7" fill="#FFFFFF" stroke="#D8DEE8"/>
  <text x="34" y="442" fill="#667085" font-family="Arial, sans-serif" font-size="14">app</text>
  <line x1="0" y1="466.5" x2="360" y2="466.5" stroke="#D8DEE8"/>
  <rect x="0" y="467" width="360" height="42" fill="#FFFFFF"/>
  <text x="28" y="493" fill="#667085" font-family="Arial, sans-serif" font-size="14">../</text>
  <text x="76" y="493" fill="#667085" font-family="Arial, sans-serif" font-size="12">親Prefixへ移動</text>
  <line x1="0" y1="509.5" x2="360" y2="509.5" stroke="#D8DEE8"/>
  <rect x="0" y="510" width="360" height="50" fill="#E8F2EF"/>
  <text x="28" y="541" fill="#A96500" font-family="Arial, sans-serif" font-size="18">★</text>
  <line x1="52" y1="510" x2="52" y2="560" stroke="#D8DEE8"/>
  <text x="68" y="536" fill="#17202A" font-family="Arial, sans-serif" font-size="14" font-weight="700">logs/2026/app.env</text>
  <text x="68" y="554" fill="#667085" font-family="Arial, sans-serif" font-size="12">265 B · 2026-05-16T07:38:39.000Z</text>
  <line x1="0" y1="560.5" x2="360" y2="560.5" stroke="#D8DEE8"/>
  <text x="28" y="591" fill="#8993A3" font-family="Arial, sans-serif" font-size="18">☆</text>
  <line x1="52" y1="561" x2="52" y2="611" stroke="#D8DEE8"/>
  <text x="68" y="587" fill="#17202A" font-family="Arial, sans-serif" font-size="14">logs/2026/app.log</text>
  <text x="68" y="605" fill="#667085" font-family="Arial, sans-serif" font-size="12">9.8 KiB · 2026-05-15T12:20:01.000Z</text>

  <rect x="0.5" y="642.5" width="359" height="158" fill="#FFFFFF" stroke="#D8DEE8"/>
  <text x="28" y="671" fill="#667085" font-family="Arial, sans-serif" font-size="12" font-weight="700">BUCKETS</text>
  <rect x="20.5" y="684.5" width="319" height="42" rx="7" fill="#FFFFFF" stroke="#D8DEE8"/>
  <text x="34" y="709" fill="#17202A" font-family="Arial, sans-serif" font-size="13" font-weight="700">example-assets-bucket</text>
  <text x="318" y="709" text-anchor="middle" fill="#9F2A2A" font-family="Arial, sans-serif" font-size="18">×</text>
  <text x="28" y="755" fill="#667085" font-family="Arial, sans-serif" font-size="12" font-weight="700">OBJECTS</text>
  <rect x="20.5" y="768.5" width="319" height="42" rx="7" fill="#FFFDF5" stroke="#D8DEE8"/>
  <text x="34" y="793" fill="#17202A" font-family="Arial, sans-serif" font-size="13" font-weight="700">logs/2026/app.env</text>
  <text x="236" y="793" fill="#667085" font-family="Arial, sans-serif" font-size="11">example-assets</text>
  <text x="318" y="793" text-anchor="middle" fill="#9F2A2A" font-family="Arial, sans-serif" font-size="18">×</text>

  <rect x="0.5" y="800.5" width="179.5" height="99" fill="#E8F2EF" stroke="#D8DEE8"/>
  <rect x="20" y="896" width="140" height="3" rx="1.5" fill="#126A5A"/>
  <text x="28" y="829" fill="#126A5A" font-family="Arial, sans-serif" font-size="13" font-weight="700">▼ お気に入り</text>
  <rect x="180" y="800.5" width="179.5" height="99" fill="#FFFFFF" stroke="#D8DEE8"/>
  <text x="208" y="829" fill="#667085" font-family="Arial, sans-serif" font-size="13" font-weight="700">▶ 履歴</text>

  <rect x="360" y="0.5" width="1079.5" height="88" fill="#FFFFFF" stroke="#D8DEE8"/>
  <rect x="382" y="24" width="54" height="28" rx="14" fill="#DFF3EC"/>
  <text x="409" y="44" text-anchor="middle" fill="#0E5145" font-family="Arial, sans-serif" font-size="14" font-weight="700">env</text>
  <text x="382" y="75" fill="#17202A" font-family="Arial, sans-serif" font-size="24" font-weight="700">logs/2026/app.env</text>
  <rect x="650" y="16" width="82" height="34" rx="7" fill="#126A5A"/>
  <text x="691" y="38" text-anchor="middle" fill="#FFFFFF" font-family="Arial, sans-serif" font-size="14" font-weight="700">保存 ON</text>
  <rect x="742" y="16" width="64" height="34" rx="7" fill="#FFFFFF" stroke="#B7C0CC"/>
  <text x="774" y="38" text-anchor="middle" fill="#667085" font-family="Arial, sans-serif" font-size="14" font-weight="700">拡大</text>
  <rect x="816" y="16" width="100" height="34" rx="7" fill="#126A5A"/>
  <text x="866" y="38" text-anchor="middle" fill="#FFFFFF" font-family="Arial, sans-serif" font-size="14" font-weight="700">テキスト編集</text>
  <rect x="926" y="16" width="86" height="34" rx="7" fill="#126A5A"/>
  <text x="969" y="38" text-anchor="middle" fill="#FFFFFF" font-family="Arial, sans-serif" font-size="14" font-weight="700">keyコピー</text>
  <rect x="1022" y="16" width="106" height="34" rx="7" fill="#126A5A"/>
  <text x="1075" y="38" text-anchor="middle" fill="#FFFFFF" font-family="Arial, sans-serif" font-size="14" font-weight="700">S3 URIコピー</text>
  <rect x="1138" y="16" width="86" height="34" rx="7" fill="#126A5A"/>
  <text x="1181" y="38" text-anchor="middle" fill="#FFFFFF" font-family="Arial, sans-serif" font-size="14" font-weight="700">URLコピー</text>
  <rect x="1234" y="16" width="64" height="34" rx="7" fill="#126A5A"/>
  <text x="1266" y="38" text-anchor="middle" fill="#FFFFFF" font-family="Arial, sans-serif" font-size="14" font-weight="700">複製</text>
  <rect x="1308" y="16" width="96" height="34" rx="7" fill="#126A5A"/>
  <text x="1356" y="38" text-anchor="middle" fill="#FFFFFF" font-family="Arial, sans-serif" font-size="14" font-weight="700">ダウンロード</text>
  <rect x="650" y="56" width="64" height="28" rx="7" fill="#126A5A"/>
  <text x="682" y="75" text-anchor="middle" fill="#FFFFFF" font-family="Arial, sans-serif" font-size="13" font-weight="700">差分</text>
  <rect x="724" y="56" width="104" height="28" rx="7" fill="#126A5A"/>
  <text x="776" y="75" text-anchor="middle" fill="#FFFFFF" font-family="Arial, sans-serif" font-size="13" font-weight="700">アップロード</text>

  <rect x="384" y="116" width="1016" height="52" rx="7" fill="#FFF4D6" stroke="#E5C86D"/>
  <text x="412" y="150" fill="#6F4D00" font-family="Arial, sans-serif" font-size="18" font-weight="700">AWS S3 に接続しています。アップロード前に対象キーを確認してください。</text>
  <rect x="384" y="180" width="1016" height="44" rx="7" fill="#FFFFFF" stroke="#D8DEE8"/>
  <text x="412" y="207" fill="#17202A" font-family="Arial, sans-serif" font-size="15">アップロード 3/5</text>
  <text x="548" y="207" fill="#17202A" font-family="Arial, sans-serif" font-size="15">成功 3 / 衝突 1 / 失敗 0</text>
  <rect x="780" y="195" width="580" height="10" rx="5" fill="#E6EDF3"/>
  <rect x="780" y="195" width="348" height="10" rx="5" fill="#126A5A"/>

  <rect x="384.5" y="244.5" width="716" height="390" rx="8" fill="#FBFCFE" stroke="#D8DEE8"/>
  <rect x="384.5" y="244.5" width="716" height="62" fill="#FFFFFF" stroke="#D8DEE8"/>
  <rect x="884" y="260" width="170" height="38" rx="7" fill="#126A5A"/>
  <text x="969" y="285" text-anchor="middle" fill="#FFFFFF" font-family="Arial, sans-serif" font-size="17" font-weight="700">変数を追加</text>

  <rect x="416" y="334" width="280" height="40" rx="7" fill="#FFFFFF" stroke="#D8DEE8"/>
  <text x="434" y="360" fill="#17202A" font-family="Arial, sans-serif" font-size="15">AWS_REGION</text>
  <rect x="712" y="334" width="300" height="40" rx="7" fill="#FFFFFF" stroke="#D8DEE8"/>
  <text x="730" y="360" fill="#17202A" font-family="Arial, sans-serif" font-size="15">ap-northeast-1</text>
  <rect x="1022" y="334" width="44" height="40" rx="7" fill="#FFFFFF" stroke="#DFA0A0"/>
  <text x="1044" y="361" text-anchor="middle" fill="#9F2A2A" font-family="Arial, sans-serif" font-size="20">×</text>

  <rect x="416" y="390" width="280" height="40" rx="7" fill="#FFFFFF" stroke="#D8DEE8"/>
  <text x="434" y="416" fill="#17202A" font-family="Arial, sans-serif" font-size="15">APP_NAME</text>
  <rect x="712" y="390" width="300" height="40" rx="7" fill="#FFFFFF" stroke="#D8DEE8"/>
  <text x="730" y="416" fill="#17202A" font-family="Arial, sans-serif" font-size="15">S3 File Manager</text>
  <rect x="1022" y="390" width="44" height="40" rx="7" fill="#FFFFFF" stroke="#DFA0A0"/>
  <text x="1044" y="417" text-anchor="middle" fill="#9F2A2A" font-family="Arial, sans-serif" font-size="20">×</text>

  <rect x="416" y="446" width="280" height="40" rx="7" fill="#FFFFFF" stroke="#D8DEE8"/>
  <text x="434" y="472" fill="#17202A" font-family="Arial, sans-serif" font-size="15">日本語キー</text>
  <rect x="712" y="446" width="300" height="40" rx="7" fill="#FFFFFF" stroke="#D8DEE8"/>
  <text x="730" y="472" fill="#17202A" font-family="Arial, sans-serif" font-size="15">日本語の値</text>
  <rect x="1022" y="446" width="44" height="40" rx="7" fill="#FFFFFF" stroke="#DFA0A0"/>
  <text x="1044" y="473" text-anchor="middle" fill="#9F2A2A" font-family="Arial, sans-serif" font-size="20">×</text>

  <rect x="1124.5" y="244.5" width="276" height="390" rx="8" fill="#FFFFFF" stroke="#D8DEE8"/>
  <text x="1148" y="282" fill="#667085" font-family="Arial, sans-serif" font-size="14" font-weight="700">Bucket</text>
  <text x="1148" y="308" fill="#17202A" font-family="Arial, sans-serif" font-size="15">example-assets-bucket</text>
  <text x="1148" y="352" fill="#667085" font-family="Arial, sans-serif" font-size="14" font-weight="700">Content-Type</text>
  <rect x="1148.5" y="364.5" width="228" height="38" rx="7" fill="#FFFFFF" stroke="#D8DEE8"/>
  <text x="1162" y="389" fill="#17202A" font-family="Arial, sans-serif" font-size="14">text/plain; charset=utf-8</text>
  <path d="M1360 379 L1366 385 L1372 379" stroke="#667085" stroke-width="2" fill="none" stroke-linecap="round" stroke-linejoin="round"/>
  <text x="1148" y="438" fill="#667085" font-family="Arial, sans-serif" font-size="14" font-weight="700">Size</text>
  <text x="1148" y="464" fill="#17202A" font-family="Arial, sans-serif" font-size="15">265 B</text>
  <text x="1148" y="508" fill="#667085" font-family="Arial, sans-serif" font-size="14" font-weight="700">ETag</text>
  <text x="1148" y="534" fill="#17202A" font-family="Arial, sans-serif" font-size="15">"f0ddc525..."</text>
  <text x="1148" y="578" fill="#667085" font-family="Arial, sans-serif" font-size="14" font-weight="700">LastModified</text>
  <text x="1148" y="604" fill="#17202A" font-family="Arial, sans-serif" font-size="15">2026-05-16T07:38:39.000Z</text>

  <rect x="384.5" y="620.5" width="1016" height="190" rx="8" fill="#101820" stroke="#D8DEE8"/>
  <rect x="384.5" y="620.5" width="1016" height="48" rx="8" fill="#FFFFFF" stroke="#D8DEE8"/>
  <text x="412" y="652" fill="#17202A" font-family="Arial, sans-serif" font-size="18" font-weight="700">差分</text>
  <rect x="1346" y="629" width="38" height="32" rx="7" fill="#126A5A"/>
  <text x="1365" y="652" text-anchor="middle" fill="#FFFFFF" font-family="Arial, sans-serif" font-size="20">×</text>
  <text x="412" y="704" fill="#EDF6F9" font-family="Menlo, Consolas, monospace" font-size="14">  AWS_REGION=ap-northeast-1</text>
  <text x="412" y="730" fill="#EDF6F9" font-family="Menlo, Consolas, monospace" font-size="14">- APP_NAME="old app"</text>
  <text x="412" y="756" fill="#EDF6F9" font-family="Menlo, Consolas, monospace" font-size="14">+ APP_NAME="S3 File Manager"</text>

  <rect x="860" y="826" width="500" height="52" rx="8" fill="#9F2A2A"/>
  <text x="884" y="857" fill="#FFFFFF" font-family="Arial, sans-serif" font-size="14">リージョンが異なります。バケットのリージョンは us-west-2 です。</text>
  <rect x="1196" y="837" width="100" height="30" rx="7" fill="#FFFFFF" fill-opacity="0.16" stroke="#FFFFFF" stroke-opacity="0.55"/>
  <text x="1246" y="857" text-anchor="middle" fill="#FFFFFF" font-family="Arial, sans-serif" font-size="13" font-weight="700">us-west-2に切替</text>
  <text x="1332" y="858" text-anchor="middle" fill="#FFFFFF" font-family="Arial, sans-serif" font-size="18">×</text>
</svg>
